<?xml version="1.0" encoding="UTF-8"?>
<!DOCTYPE svg PUBLIC "-//W3C//DTD SVG 1.0//EN" "http://www.w3.org/TR/2001/REC-SVG-20010904/DTD/svg10.dtd">
<!-- Creator: CorelDRAW 2017 -->
<svg xmlns="http://www.w3.org/2000/svg" xml:space="preserve" width="11.6929in" height="8.26772in" version="1.0" style="shape-rendering:geometricPrecision; text-rendering:geometricPrecision; image-rendering:optimizeQuality; fill-rule:evenodd; clip-rule:evenodd"
viewBox="0 0 11692.91 8267.72"
 xmlns:xlink="http://www.w3.org/1999/xlink"
 xmlns:svgjs="http://svgjs.com/svgjs">
 <defs>
  <style type="text/css">
   <![CDATA[
    .fil0 {fill:#A7C4D2}
   ]]>
  </style>
 </defs>
 <g id="Layer_x0020_1">
  <metadata id="CorelCorpID_0Corel-Layer"/>
  <g id="_2551142710528">
   <path class="fil0" d="M5846.46 1578.3c-1473.33,0 -2666.67,1173.33 -2666.67,2620.44 0,1158 764,2140 1823.33,2486.22 133.33,24.67 182.22,-56.44 182.22,-126 0,-62.22 -2.22,-227.11 -3.33,-445.56 -741.78,158 -898.22,-351.56 -898.22,-351.56 -121.33,-302.44 -296.67,-383.33 -296.67,-383.33 -241.56,-162.44 18.67,-159.11 18.67,-159.11 267.78,18.22 408.44,270 408.44,270 237.78,400.67 624.22,284.89 776.67,218 24,-169.56 92.67,-284.89 168.89,-350.44 -592.22,-65.56 -1214.67,-290.89 -1214.67,-1294.89 0,-286 103.33,-519.78 274.44,-703.11 -30,-66.22 -120,-332.67 23.33,-693.56 0,0 223.33,-70.22 733.33,268.67 213.33,-58.22 440,-87.11 666.67,-88.44 226.67,1.33 453.33,30.22 666.67,88.44 506.67,-338.89 730,-268.67 730,-268.67 143.33,360.89 53.33,627.33 26.67,693.56 170,183.33 273.33,417.11 273.33,703.11 0,1006.67 -623.33,1228.22 -1216.67,1292.67 93.33,78.67 180,239.33 180,484.89 0,350.67 -3.33,632.44 -3.33,717.56 0,68.67 46.67,150.67 183.33,124.44 1066.89,-344 1830.22,-1326.67 1830.22,-2482.89 0,-1447.11 -1194,-2620.44 -2666.67,-2620.44l-0 0z" data-original="#000000"/>
  </g>
 </g>
</svg>
